<svg xmlns="http://www.w3.org/2000/svg" width="128" height="128" viewBox="0 0 33.867 33.867"><defs><linearGradient id="f" x1="148.44" x2="351.56" y1="351.56" y2="148.44" gradientTransform="translate(1.057 -47.097)scale(.05292)" gradientUnits="userSpaceOnUse" href="#a"/><linearGradient id="a"><stop offset=".5" stop-color="#bf0000"/><stop offset="1" stop-color="red"/></linearGradient><linearGradient id="e" x1="364.25" x2="114.96" y1="27.66" y2="460.42" gradientTransform="translate(1.057 -47.097)scale(.05292)" gradientUnits="userSpaceOnUse" href="#b"/><linearGradient id="b"><stop offset="0" stop-color="maroon"/><stop offset="1" stop-color="#300"/></linearGradient><linearGradient id="d" x1="135.75" x2="385.04" y1="472.42" y2="39.64" gradientTransform="translate(1.057 -47.097)scale(.05292)" gradientUnits="userSpaceOnUse" href="#c"/><linearGradient id="c"><stop offset="0" stop-color="red"/><stop offset="1" stop-color="#f66"/></linearGradient></defs><path fill="url(#d)" d="M20.902-45.323 7.672-22.41a13.23 13.229 0 0 0 18.072-4.842 13.23 13.229 0 0 0-4.842-18.071" style="fill:url(#d);stroke-width:.0529203" transform="translate(-1.355 60.283)scale(1.28)"/><path fill="url(#e)" d="M20.902-45.323a13.23 13.229 0 0 0-18.071 4.842 13.23 13.229 0 0 0 4.842 18.07l.002.002 13.229-22.913z" style="fill:url(#e);stroke-width:.0529203" transform="translate(-1.355 60.283)scale(1.28)"/><path fill="#fff" d="M8.241-22.097a13 13 0 0 1-1.1-.635l13.194-22.904a13 13 0 0 1 1.1.635z" style="stroke-width:.0529203" transform="translate(-1.355 60.283)scale(1.28)"/><path fill="#fff" d="M7.672-33.867a6.615 6.615 0 1 0 13.23 0 6.615 6.615 0 1 0-13.23 0" style="stroke-width:.0529203" transform="translate(-1.355 60.283)scale(1.28)"/><path fill="url(#f)" d="M8.913-33.867a5.375 5.375 0 1 0 10.75 0 5.375 5.375 0 0 0-10.75 0" style="fill:url(#f);stroke-width:.0529203" transform="translate(-1.355 60.283)scale(1.28)"/></svg>